<svg width="23" height="23" viewBox="0 0 23 23" fill="none" xmlns="http://www.w3.org/2000/svg">
<path d="M20.6707 8.41927C20.6131 8.24946 20.507 8.10025 20.3655 7.99006C20.224 7.87987 20.0533 7.81353 19.8746 7.79922L14.6454 7.38371L12.3826 2.3747C12.3105 2.21337 12.1933 2.07634 12.0451 1.98016C11.8969 1.88397 11.724 1.83274 11.5473 1.83264C11.3706 1.83254 11.1977 1.88359 11.0493 1.97961C10.901 2.07563 10.7836 2.21253 10.7114 2.37378L8.44858 7.38371L3.21943 7.79922C3.04374 7.81314 2.87578 7.87738 2.73564 7.98425C2.5955 8.09113 2.48912 8.23612 2.42923 8.40187C2.36933 8.56762 2.35846 8.74712 2.39791 8.91889C2.43735 9.09066 2.52545 9.24743 2.65166 9.37044L6.51597 13.1375L5.14929 19.0555C5.10779 19.2347 5.12109 19.4221 5.18747 19.5936C5.25384 19.7651 5.37022 19.9127 5.52151 20.0172C5.67279 20.1217 5.852 20.1783 6.03587 20.1797C6.21975 20.1811 6.3998 20.1272 6.55266 20.025L11.547 16.6955L16.5413 20.025C16.6976 20.1288 16.8818 20.1822 17.0693 20.1781C17.2568 20.1739 17.4386 20.1125 17.5901 20.002C17.7416 19.8916 17.8557 19.7373 17.917 19.5601C17.9782 19.3828 17.9838 19.1911 17.9328 19.0106L16.2552 13.1403L20.4157 9.39612C20.6882 9.15031 20.7881 8.7669 20.6707 8.41927Z" fill="#F3CD03"/>
</svg>
