<svg width="23" height="23" viewBox="0 0 23 23" fill="none" xmlns="http://www.w3.org/2000/svg">
<path d="M6.53178 13.1377L5.1651 19.0557C5.12278 19.2349 5.13549 19.4227 5.20156 19.5945C5.26763 19.7664 5.38399 19.9143 5.53545 20.0191C5.68691 20.1238 5.86643 20.1804 6.05056 20.1814C6.23468 20.1825 6.41486 20.1281 6.56755 20.0252L11.5619 16.6956L16.5562 20.0252C16.7125 20.1289 16.8967 20.1823 17.0842 20.1782C17.2717 20.1741 17.4535 20.1127 17.605 20.0022C17.7565 19.8917 17.8706 19.7375 17.9319 19.5602C17.9931 19.383 17.9986 19.1912 17.9477 19.0107L16.2701 13.1404L20.4306 9.39628C20.5639 9.27629 20.659 9.11988 20.7043 8.94638C20.7497 8.77289 20.7431 8.58992 20.6855 8.4201C20.6279 8.25029 20.5219 8.10107 20.3804 7.99091C20.2389 7.88075 20.0682 7.81448 19.8895 7.80029L14.6603 7.38386L12.3975 2.37485C12.3253 2.21356 12.208 2.0766 12.0598 1.98049C11.9115 1.88439 11.7386 1.83325 11.5619 1.83325C11.3852 1.83325 11.2123 1.88439 11.064 1.98049C10.9157 2.0766 10.7984 2.21356 10.7263 2.37485L8.46347 7.38386L3.23432 7.79937C3.05863 7.81329 2.89067 7.87753 2.75053 7.98441C2.61039 8.09128 2.50401 8.23627 2.44412 8.40202C2.38422 8.56777 2.37335 8.74727 2.4128 8.91904C2.45225 9.09081 2.54034 9.24758 2.66656 9.37059L6.53178 13.1377ZM9.14865 9.16972C9.31237 9.15682 9.46961 9.10012 9.60387 9.00555C9.73814 8.91098 9.8445 8.78203 9.91179 8.63222L11.5619 4.98071L13.212 8.63222C13.2793 8.78203 13.3856 8.91098 13.5199 9.00555C13.6542 9.10012 13.8114 9.15682 13.9751 9.16972L17.6184 9.45865L14.6181 12.159C14.3576 12.3938 14.254 12.7552 14.3494 13.0927L15.4987 17.1148L12.0719 14.83C11.9215 14.729 11.7444 14.6751 11.5633 14.6751C11.3821 14.6751 11.2051 14.729 11.0547 14.83L7.47378 17.2175L8.43688 13.0478C8.47219 12.8944 8.46745 12.7346 8.42311 12.5836C8.37878 12.4326 8.29634 12.2955 8.18372 12.1856L5.39716 9.46874L9.14865 9.16972Z" fill="#F3CD03"/>
</svg>
